<?xml version="1.0" standalone="no"?>
<!DOCTYPE svg PUBLIC "-//W3C//DTD SVG 20010904//EN"
 "http://www.w3.org/TR/2001/REC-SVG-20010904/DTD/svg10.dtd">
<svg version="1.0" xmlns="http://www.w3.org/2000/svg"
 width="900.000000pt" height="300.000000pt" viewBox="0 0 900.000000 300.000000"
 preserveAspectRatio="xMidYMid meet">

<g transform="translate(0.000000,300.000000) scale(0.100000,-0.100000)"
fill="white" stroke="none">
<path d="M2235 2575 c-44 -7 -108 -20 -143 -29 -257 -68 -437 -251 -478 -487
-51 -296 151 -565 494 -656 85 -23 116 -26 252 -26 127 0 169 4 235 21 109 30
227 90 308 158 64 53 68 58 61 88 -3 17 -8 34 -10 38 -2 3 -28 -18 -56 -48
-36 -38 -77 -67 -135 -96 -76 -38 -90 -41 -182 -46 -81 -4 -111 -1 -168 16
-153 47 -263 151 -323 307 -31 79 -34 223 -6 305 87 261 355 402 612 322 131
-40 132 -26 -12 -255 -68 -109 -124 -200 -124 -202 0 -3 460 262 469 270 8 9
-54 88 -104 132 -113 100 -260 161 -447 188 -120 17 -136 17 -243 0z"/>
<path d="M3385 2285 l-230 -84 221 -1 221 0 37 -136 c20 -75 35 -139 32 -141
-2 -2 -25 9 -50 25 -99 63 -260 79 -376 38 -113 -41 -200 -134 -222 -238 -41
-195 136 -368 376 -368 126 0 226 41 323 133 l52 49 10 -41 c6 -23 16 -59 21
-81 l11 -40 174 0 c96 0 175 4 175 8 0 31 -214 802 -230 826 -55 89 -139 136
-245 135 -63 0 -95 -9 -300 -84z m233 -429 c118 -62 137 -207 38 -294 -44 -38
-71 -46 -137 -40 -172 17 -213 255 -57 331 41 20 120 22 156 3z"/>
<path d="M4238 2287 l-176 -82 114 -3 114 -3 0 -399 0 -400 175 0 175 0 0 360
c0 392 2 404 55 428 39 18 60 15 94 -14 l31 -26 0 -374 0 -374 180 0 180 0 0
398 c0 218 -5 415 -10 436 -19 83 -84 136 -166 136 -45 0 -77 -11 -206 -70
-148 -69 -167 -73 -168 -36 0 18 -52 76 -80 91 -16 8 -53 15 -82 15 -45 -1
-80 -13 -230 -83z"/>
<path d="M5678 2351 c-161 -53 -281 -174 -330 -334 -27 -90 -22 -244 11 -326
132 -327 547 -426 805 -190 99 90 152 201 162 339 17 216 -111 418 -317 501
-77 31 -251 37 -331 10z m129 -67 c13 -8 28 -25 33 -37 24 -54 189 -698 184
-714 -20 -63 -56 -93 -111 -93 -39 0 -87 32 -101 66 -19 47 -182 670 -182 694
0 33 30 78 64 95 34 17 77 13 113 -11z"/>
<path d="M6466 2287 l-178 -82 113 -5 114 -5 3 -397 2 -398 175 0 175 0 0 371
0 371 29 29 c40 39 82 39 122 0 l29 -29 0 -371 0 -371 175 0 175 0 0 420 c0
399 -1 423 -20 460 -29 57 -73 84 -145 88 -57 3 -68 -1 -209 -67 -82 -39 -151
-70 -153 -68 -1 2 -13 23 -26 48 -30 57 -84 89 -152 89 -42 0 -80 -14 -229
-83z"/>
<path d="M1785 964 c-78 -29 -125 -95 -145 -204 -30 -165 41 -318 162 -350 49
-14 127 -6 170 16 36 19 85 85 93 127 4 18 9 40 11 50 5 14 -1 17 -35 17 -35
0 -41 -3 -41 -20 0 -30 -36 -96 -62 -114 -30 -21 -112 -21 -148 1 -47 28 -73
87 -78 178 -5 97 9 154 49 200 67 76 180 65 222 -21 18 -39 25 -44 54 -44 36
0 40 10 22 57 -36 97 -164 147 -274 107z"/>
<path d="M3256 966 c-21 -8 -56 -32 -77 -52 -57 -55 -74 -109 -74 -229 1 -89
4 -106 27 -151 54 -103 151 -149 259 -124 76 18 140 83 164 164 26 90 17 208
-21 283 -52 101 -172 148 -278 109z m165 -76 c49 -35 74 -103 74 -200 0 -144
-55 -220 -160 -220 -65 0 -101 24 -133 90 -37 76 -38 191 -1 265 44 89 144
118 220 65z"/>
<path d="M6249 966 c-112 -40 -167 -150 -157 -312 9 -130 69 -218 168 -244
126 -34 246 42 266 168 l7 42 -36 0 c-32 0 -36 -3 -42 -32 -17 -80 -62 -118
-138 -118 -99 0 -150 75 -150 222 0 73 4 95 24 135 30 58 75 86 136 86 53 0
91 -24 116 -76 16 -32 23 -37 53 -37 39 0 41 8 15 65 -43 95 -157 139 -262
101z"/>
<path d="M2290 948 c-15 -37 -180 -513 -180 -522 0 -4 17 -6 37 -4 37 3 37 4
62 81 l25 77 101 0 101 0 25 -77 25 -78 42 -3 41 -3 -60 173 c-34 95 -75 214
-91 263 -17 50 -35 96 -41 103 -5 6 -25 12 -43 12 -26 0 -37 -5 -44 -22z m84
-178 c20 -60 36 -114 36 -120 0 -6 -31 -10 -75 -10 -44 0 -75 4 -75 10 0 15
70 230 75 230 2 0 20 -49 39 -110z"/>
<path d="M2620 695 l0 -275 35 0 35 0 0 212 0 212 121 -212 120 -212 43 0 43
0 -1 273 -1 272 -35 0 -35 0 0 -213 c0 -116 -2 -212 -5 -212 -3 1 -48 78 -100
172 -142 257 -143 258 -185 258 l-35 0 0 -275z"/>
<path d="M3660 695 l0 -275 35 0 35 0 0 212 0 212 76 -134 c172 -305 161 -290
205 -290 l39 0 0 276 0 275 -32 -3 -33 -3 0 -213 c0 -116 -2 -212 -5 -212 -3
1 -48 78 -100 172 -144 259 -143 258 -185 258 l-35 0 0 -275z"/>
<path d="M4367 964 c-4 -4 -7 -128 -7 -276 l0 -268 35 0 35 0 2 218 3 217 73
-217 74 -218 32 0 31 0 72 213 71 212 1 -212 1 -213 35 0 35 0 0 276 0 275
-47 -3 -48 -3 -74 -218 c-40 -120 -76 -215 -80 -212 -3 4 -38 102 -77 218
l-71 212 -44 3 c-25 2 -48 0 -52 -4z"/>
<path d="M4980 695 l0 -275 175 0 175 0 0 30 0 30 -140 0 -140 0 0 95 0 95
131 0 130 0 -3 28 -3 27 -127 3 -128 3 0 84 0 84 138 3 137 3 0 30 0 30 -172
3 -173 2 0 -275z"/>
<path d="M5440 969 c0 -2 -1 -127 -3 -277 l-2 -272 116 0 c170 0 219 22 266
118 25 52 28 67 28 162 0 88 -4 112 -22 145 -48 90 -103 116 -265 123 -65 2
-118 3 -118 1z m275 -99 c42 -38 55 -80 55 -173 0 -66 -5 -92 -22 -127 -35
-68 -75 -90 -164 -90 l-74 0 0 211 0 211 89 -4 c79 -3 93 -6 116 -28z"/>
<path d="M5937 964 c-4 -4 -7 -128 -7 -276 l0 -268 40 0 40 0 -2 273 -3 272
-30 3 c-17 2 -34 0 -38 -4z"/>
<path d="M6745 953 c-3 -10 -44 -126 -90 -258 -46 -132 -87 -248 -90 -257 -6
-15 -1 -18 32 -18 l39 0 25 78 25 77 101 3 101 3 27 -81 27 -80 39 0 c37 0 40
2 33 23 -4 12 -46 135 -94 272 l-88 250 -40 3 c-30 2 -41 -1 -47 -15z m86
-188 c20 -63 34 -117 31 -120 -3 -3 -39 -5 -80 -5 -55 0 -73 3 -70 13 3 6 20
60 38 120 18 59 36 107 39 107 3 0 22 -52 42 -115z"/>
<path d="M7077 964 c-4 -4 -7 -128 -7 -276 l0 -268 165 0 165 0 0 30 0 30
-125 0 -125 0 -2 243 -3 242 -30 3 c-17 2 -34 0 -38 -4z"/>
</g>
</svg>
