<?xml version="1.0" standalone="no"?>
<!DOCTYPE svg PUBLIC "-//W3C//DTD SVG 20010904//EN"
 "http://www.w3.org/TR/2001/REC-SVG-20010904/DTD/svg10.dtd">
<svg version="1.0" xmlns="http://www.w3.org/2000/svg"
 width="900.000000pt" height="500.000000pt" viewBox="0 0 900.000000 500.000000"
 preserveAspectRatio="xMidYMid meet">

<g transform="translate(0.000000,500.000000) scale(0.100000,-0.100000)"
fill="white" stroke="none">
<path d="M6283 3300 c-69 -45 -92 -157 -46 -219 37 -49 70 -66 131 -66 71 0
116 29 144 92 27 62 17 114 -32 167 -35 37 -42 40 -101 43 -52 3 -70 0 -96
-17z"/>
<path d="M1289 3245 c-56 -18 -130 -82 -166 -142 -37 -64 -43 -167 -14 -243
72 -190 321 -250 479 -115 120 103 130 295 23 418 -70 79 -215 116 -322 82z"/>
<path d="M3080 3130 l0 -120 120 0 120 0 0 120 0 120 -120 0 -120 0 0 -120z"/>
<path d="M3420 3130 l0 -120 120 0 120 0 0 120 0 120 -120 0 -120 0 0 -120z"/>
<path d="M8352 2939 c-206 -34 -353 -244 -312 -445 32 -152 149 -272 293 -299
l37 -7 0 127 0 128 -37 32 c-36 31 -38 36 -38 90 0 53 3 59 37 91 31 28 46 34
81 34 61 0 108 -33 125 -88 l14 -42 125 0 126 0 -5 58 c-19 203 -231 357 -446
321z"/>
<path d="M190 2836 c0 -193 80 -449 193 -616 120 -178 293 -325 492 -420 268
-127 608 -146 897 -50 469 157 796 587 810 1070 l3 85 -237 3 -238 2 0 -50 c0
-63 -25 -187 -52 -254 -73 -185 -249 -350 -442 -412 -117 -38 -278 -44 -398
-15 -200 48 -374 182 -466 359 -52 99 -74 176 -81 282 l-6 85 -237 3 -238 2 0
-74z"/>
<path d="M3240 2310 l0 -600 130 0 130 0 0 600 0 600 -130 0 -130 0 0 -600z"/>
<path d="M3860 2310 l0 -601 128 3 127 3 0 595 0 595 -127 3 -128 3 0 -601z"/>
<path d="M4220 2781 l0 -131 43 0 c85 0 193 -52 252 -122 52 -62 79 -135 80
-218 0 -65 -4 -84 -33 -142 -55 -111 -160 -184 -283 -195 l-59 -6 0 -123 0
-124 64 0 c190 0 411 140 500 318 48 95 66 169 66 269 0 100 -14 169 -50 248
-91 201 -273 324 -517 350 l-63 7 0 -131z"/>
<path d="M5070 2310 l0 -600 125 0 125 0 0 600 0 600 -125 0 -125 0 0 -600z"/>
<path d="M5696 2888 c-46 -74 -326 -569 -326 -577 0 -5 76 -141 168 -302 l168
-294 137 -3 c80 -1 137 1 137 7 0 5 -74 139 -165 297 -91 158 -165 291 -165
294 0 3 74 136 165 294 91 158 165 292 165 297 0 5 -61 9 -135 9 -129 0 -135
-1 -149 -22z"/>
<path d="M6240 2310 l0 -600 130 0 130 0 0 600 0 600 -130 0 -130 0 0 -600z"/>
<path d="M6850 2310 l0 -600 130 0 130 0 0 600 0 600 -130 0 -130 0 0 -600z"/>
<path d="M7217 2904 c-4 -4 -7 -62 -7 -129 l0 -122 63 -5 c35 -3 84 -15 110
-26 65 -29 142 -104 174 -171 24 -48 28 -68 28 -141 -1 -64 -6 -96 -22 -130
-51 -112 -171 -196 -292 -207 l-61 -6 0 -125 0 -125 83 6 c113 7 203 38 295
100 272 186 341 545 157 817 -104 153 -261 243 -465 265 -31 3 -59 3 -63 -1z"/>
<path d="M8470 2316 l0 -127 34 -33 c42 -39 54 -88 32 -139 -27 -65 -113 -96
-176 -64 -31 16 -70 73 -70 104 l0 24 -127 -3 -128 -3 3 -49 c11 -164 153
-311 324 -335 172 -24 333 60 408 214 71 143 37 320 -82 436 -45 44 -127 87
-181 96 l-37 6 0 -127z"/>
</g>
</svg>
