<?xml version="1.0" standalone="no"?>
<!DOCTYPE svg PUBLIC "-//W3C//DTD SVG 20010904//EN"
 "http://www.w3.org/TR/2001/REC-SVG-20010904/DTD/svg10.dtd">
<svg version="1.0" xmlns="http://www.w3.org/2000/svg"
 width="360.000000pt" height="237.000000pt" viewBox="0 0 360.000000 237.000000"
 preserveAspectRatio="xMidYMid meet">

<g transform="translate(0.000000,237.000000) scale(0.100000,-0.100000)"
fill="white" stroke="none">
<path d="M1726 2219 c-210 -35 -362 -249 -326 -458 27 -157 130 -276 278 -321
233 -72 471 76 514 320 37 212 -117 424 -333 460 -35 5 -68 9 -74 9 -5 -1 -32
-5 -59 -10z"/>
<path d="M105 1830 c-10 -17 14 -282 36 -391 144 -705 722 -1239 1442 -1334
678 -88 1356 254 1687 851 131 237 198 476 215 772 l6 112 -338 -2 -338 -3 -7
-120 c-33 -610 -617 -1056 -1217 -930 -309 65 -567 266 -706 550 -67 135 -96
246 -104 390 l-6 110 -332 3 c-211 1 -334 -1 -338 -8z"/>
</g>
</svg>
