<?xml version="1.0" standalone="no"?>
<!DOCTYPE svg PUBLIC "-//W3C//DTD SVG 20010904//EN"
 "http://www.w3.org/TR/2001/REC-SVG-20010904/DTD/svg10.dtd">
<svg version="1.0" xmlns="http://www.w3.org/2000/svg"
 width="419.000000pt" height="112.000000pt" viewBox="0 0 419.000000 112.000000"
 preserveAspectRatio="xMidYMid meet">

<g transform="translate(0.000000,112.000000) scale(0.100000,-0.100000)"
fill="#000000" stroke="none">
<path d="M28 1044 c23 -16 42 -12 42 9 0 7 -4 6 -10 -3 -7 -12 -12 -12 -22 -2
-6 6 -17 12 -22 12 -6 0 0 -7 12 -16z"/>
<path d="M108 1044 c23 -16 42 -12 42 9 0 7 -4 6 -10 -3 -7 -12 -12 -12 -22
-2 -6 6 -17 12 -22 12 -6 0 0 -7 12 -16z"/>
<path d="M167 1053 c-4 -3 -7 -11 -7 -17 0 -6 5 -4 10 4 7 12 12 12 22 2 6 -6
16 -12 22 -12 5 0 1 7 -10 15 -22 16 -28 18 -37 8z"/>
<path d="M258 1044 c23 -16 42 -12 42 9 0 7 -4 6 -10 -3 -7 -12 -12 -12 -22
-2 -6 6 -17 12 -22 12 -6 0 0 -7 12 -16z"/>
<path d="M338 1044 c23 -16 42 -12 42 9 0 7 -4 6 -10 -3 -7 -12 -12 -12 -22
-2 -6 6 -17 12 -22 12 -6 0 0 -7 12 -16z"/>
<path d="M397 1053 c-4 -3 -7 -11 -7 -17 0 -6 5 -4 10 4 7 12 12 12 22 2 6 -6
16 -12 22 -12 5 0 1 7 -10 15 -22 16 -28 18 -37 8z"/>
<path d="M477 1053 c-4 -3 -7 -11 -7 -17 0 -6 5 -4 10 4 7 12 12 12 22 2 6 -6
16 -12 22 -12 5 0 1 7 -10 15 -22 16 -28 18 -37 8z"/>
<path d="M568 1044 c23 -16 42 -12 42 9 0 7 -4 6 -10 -3 -7 -12 -12 -12 -22
-2 -6 6 -17 12 -22 12 -6 0 0 -7 12 -16z"/>
<path d="M627 1053 c-4 -3 -7 -11 -7 -17 0 -6 5 -4 10 4 7 12 12 12 22 2 6 -6
16 -12 22 -12 5 0 1 7 -10 15 -22 16 -28 18 -37 8z"/>
<path d="M707 1053 c-4 -3 -7 -11 -7 -17 0 -6 5 -4 10 4 7 12 12 12 22 2 6 -6
16 -12 22 -12 5 0 1 7 -10 15 -22 16 -28 18 -37 8z"/>
<path d="M798 1044 c23 -16 42 -12 42 9 0 7 -4 6 -10 -3 -7 -12 -12 -12 -22
-2 -6 6 -17 12 -22 12 -6 0 0 -7 12 -16z"/>
<path d="M878 1044 c23 -16 42 -12 42 9 0 7 -4 6 -10 -3 -7 -12 -12 -12 -22
-2 -6 6 -17 12 -22 12 -6 0 0 -7 12 -16z"/>
<path d="M937 1053 c-4 -3 -7 -11 -7 -17 0 -6 5 -4 10 4 7 12 12 12 22 2 6 -6
16 -12 22 -12 5 0 1 7 -10 15 -22 16 -28 18 -37 8z"/>
<path d="M1028 1044 c23 -16 42 -12 42 9 0 7 -4 6 -10 -3 -7 -12 -12 -12 -22
-2 -6 6 -17 12 -22 12 -6 0 0 -7 12 -16z"/>
<path d="M1108 1044 c23 -16 42 -12 42 9 0 7 -4 6 -10 -3 -7 -12 -12 -12 -22
-2 -6 6 -17 12 -22 12 -6 0 0 -7 12 -16z"/>
<path d="M1167 1053 c-4 -3 -7 -11 -7 -17 0 -6 5 -4 10 4 7 12 12 12 22 2 6
-6 16 -12 22 -12 5 0 1 7 -10 15 -22 16 -28 18 -37 8z"/>
<path d="M1247 1053 c-4 -3 -7 -11 -7 -17 0 -6 5 -4 10 4 7 12 12 12 22 2 6
-6 16 -12 22 -12 5 0 1 7 -10 15 -22 16 -28 18 -37 8z"/>
<path d="M1338 1044 c23 -16 42 -12 42 9 0 7 -4 6 -10 -3 -7 -12 -12 -12 -22
-2 -6 6 -17 12 -22 12 -6 0 0 -7 12 -16z"/>
<path d="M1397 1053 c-4 -3 -7 -11 -7 -17 0 -6 5 -4 10 4 7 12 12 12 22 2 6
-6 16 -12 22 -12 5 0 1 7 -10 15 -22 16 -28 18 -37 8z"/>
<path d="M1477 1053 c-4 -3 -7 -11 -7 -17 0 -6 5 -4 10 4 7 12 12 12 22 2 6
-6 16 -12 22 -12 5 0 1 7 -10 15 -22 16 -28 18 -37 8z"/>
<path d="M1568 1044 c23 -16 42 -12 42 9 0 7 -4 6 -10 -3 -7 -12 -12 -12 -22
-2 -6 6 -17 12 -22 12 -6 0 0 -7 12 -16z"/>
<path d="M1648 1044 c23 -16 42 -12 42 9 0 7 -4 6 -10 -3 -7 -12 -12 -12 -22
-2 -6 6 -17 12 -22 12 -6 0 0 -7 12 -16z"/>
<path d="M1707 1053 c-4 -3 -7 -11 -7 -17 0 -6 5 -4 10 4 7 12 12 12 22 2 6
-6 16 -12 22 -12 5 0 1 7 -10 15 -22 16 -28 18 -37 8z"/>
<path d="M1798 1044 c23 -16 42 -12 42 9 0 7 -4 6 -10 -3 -7 -12 -12 -12 -22
-2 -6 6 -17 12 -22 12 -6 0 0 -7 12 -16z"/>
<path d="M1878 1044 c23 -16 42 -12 42 9 0 7 -4 6 -10 -3 -7 -12 -12 -12 -22
-2 -6 6 -17 12 -22 12 -6 0 0 -7 12 -16z"/>
<path d="M1937 1053 c-4 -3 -7 -11 -7 -17 0 -6 5 -4 10 4 7 12 12 12 22 2 6
-6 16 -12 22 -12 5 0 1 7 -10 15 -22 16 -28 18 -37 8z"/>
<path d="M2017 1053 c-4 -3 -7 -11 -7 -17 0 -6 5 -4 10 4 7 12 12 12 22 2 6
-6 16 -12 22 -12 5 0 1 7 -10 15 -22 16 -28 18 -37 8z"/>
<path d="M2108 1044 c23 -16 42 -12 42 9 0 7 -4 6 -10 -3 -7 -12 -12 -12 -22
-2 -6 6 -17 12 -22 12 -6 0 0 -7 12 -16z"/>
<path d="M2167 1053 c-4 -3 -7 -11 -7 -17 0 -6 5 -4 10 4 7 12 12 12 22 2 6
-6 16 -12 22 -12 5 0 1 7 -10 15 -22 16 -28 18 -37 8z"/>
<path d="M2247 1053 c-4 -3 -7 -11 -7 -17 0 -6 5 -4 10 4 7 12 12 12 22 2 6
-6 16 -12 22 -12 5 0 1 7 -10 15 -22 16 -28 18 -37 8z"/>
<path d="M2338 1044 c23 -16 42 -12 42 9 0 7 -4 6 -10 -3 -7 -12 -12 -12 -22
-2 -6 6 -17 12 -22 12 -6 0 0 -7 12 -16z"/>
<path d="M2397 1053 c-4 -3 -7 -11 -7 -17 0 -6 5 -4 10 4 7 12 12 12 22 2 6
-6 16 -12 22 -12 5 0 1 7 -10 15 -22 16 -28 18 -37 8z"/>
<path d="M2477 1053 c-4 -3 -7 -11 -7 -17 0 -6 5 -4 10 4 7 12 12 12 22 2 6
-6 16 -12 22 -12 5 0 1 7 -10 15 -22 16 -28 18 -37 8z"/>
<path d="M2568 1044 c23 -16 42 -12 42 9 0 7 -4 6 -10 -3 -7 -12 -12 -12 -22
-2 -6 6 -17 12 -22 12 -6 0 0 -7 12 -16z"/>
<path d="M2648 1044 c23 -16 42 -12 42 9 0 7 -4 6 -10 -3 -7 -12 -12 -12 -22
-2 -6 6 -17 12 -22 12 -6 0 0 -7 12 -16z"/>
<path d="M2707 1053 c-4 -3 -7 -11 -7 -17 0 -6 5 -4 10 4 7 12 12 12 22 2 6
-6 16 -12 22 -12 5 0 1 7 -10 15 -22 16 -28 18 -37 8z"/>
<path d="M2798 1044 c23 -16 42 -12 42 9 0 7 -4 6 -10 -3 -7 -12 -12 -12 -22
-2 -6 6 -17 12 -22 12 -6 0 0 -7 12 -16z"/>
<path d="M2878 1044 c23 -16 42 -12 42 9 0 7 -4 6 -10 -3 -7 -12 -12 -12 -22
-2 -6 6 -17 12 -22 12 -6 0 0 -7 12 -16z"/>
<path d="M2937 1053 c-4 -3 -7 -11 -7 -17 0 -6 5 -4 10 4 7 12 12 12 22 2 6
-6 16 -12 22 -12 5 0 1 7 -10 15 -22 16 -28 18 -37 8z"/>
<path d="M3017 1053 c-4 -3 -7 -11 -7 -17 0 -6 5 -4 10 4 7 12 12 12 22 2 6
-6 16 -12 22 -12 5 0 1 7 -10 15 -22 16 -28 18 -37 8z"/>
<path d="M3108 1044 c23 -16 42 -12 42 9 0 7 -4 6 -10 -3 -7 -12 -12 -12 -22
-2 -6 6 -17 12 -22 12 -6 0 0 -7 12 -16z"/>
<path d="M3167 1053 c-4 -3 -7 -11 -7 -17 0 -6 5 -4 10 4 7 12 12 12 22 2 6
-6 16 -12 22 -12 5 0 1 7 -10 15 -22 16 -28 18 -37 8z"/>
<path d="M3247 1053 c-4 -3 -7 -11 -7 -17 0 -6 5 -4 10 4 7 12 12 12 22 2 6
-6 16 -12 22 -12 5 0 1 7 -10 15 -22 16 -28 18 -37 8z"/>
<path d="M3338 1044 c23 -16 42 -12 42 9 0 7 -4 6 -10 -3 -7 -12 -12 -12 -22
-2 -6 6 -17 12 -22 12 -6 0 0 -7 12 -16z"/>
<path d="M3418 1044 c23 -16 42 -12 42 9 0 7 -4 6 -10 -3 -7 -12 -12 -12 -22
-2 -6 6 -17 12 -22 12 -6 0 0 -7 12 -16z"/>
<path d="M3477 1053 c-4 -3 -7 -11 -7 -17 0 -6 5 -4 10 4 7 12 12 12 22 2 6
-6 16 -12 22 -12 5 0 1 7 -10 15 -22 16 -28 18 -37 8z"/>
<path d="M3568 1044 c23 -16 42 -12 42 9 0 7 -4 6 -10 -3 -7 -12 -12 -12 -22
-2 -6 6 -17 12 -22 12 -6 0 0 -7 12 -16z"/>
<path d="M3648 1044 c23 -16 42 -12 42 9 0 7 -4 6 -10 -3 -7 -12 -12 -12 -22
-2 -6 6 -17 12 -22 12 -6 0 0 -7 12 -16z"/>
<path d="M3707 1053 c-4 -3 -7 -11 -7 -17 0 -6 5 -4 10 4 7 12 12 12 22 2 6
-6 16 -12 22 -12 5 0 1 7 -10 15 -22 16 -28 18 -37 8z"/>
<path d="M3787 1053 c-4 -3 -7 -11 -7 -17 0 -6 5 -4 10 4 7 12 12 12 22 2 6
-6 16 -12 22 -12 5 0 1 7 -10 15 -22 16 -28 18 -37 8z"/>
<path d="M3878 1044 c23 -16 42 -12 42 9 0 7 -4 6 -10 -3 -7 -12 -12 -12 -22
-2 -6 6 -17 12 -22 12 -6 0 0 -7 12 -16z"/>
<path d="M3937 1053 c-4 -3 -7 -11 -7 -17 0 -6 5 -4 10 4 7 12 12 12 22 2 6
-6 16 -12 22 -12 5 0 1 7 -10 15 -22 16 -28 18 -37 8z"/>
<path d="M4017 1053 c-4 -3 -7 -11 -7 -17 0 -6 5 -4 10 4 7 12 12 12 22 2 6
-6 16 -12 22 -12 5 0 1 7 -10 15 -22 16 -28 18 -37 8z"/>
<path d="M4108 1044 c23 -16 42 -12 42 9 0 7 -4 6 -10 -3 -7 -12 -12 -12 -22
-2 -6 6 -17 12 -22 12 -6 0 0 -7 12 -16z"/>
<path d="M28 904 c23 -16 42 -12 42 9 0 7 -4 6 -10 -3 -7 -12 -12 -12 -22 -2
-6 6 -17 12 -22 12 -6 0 0 -7 12 -16z"/>
<path d="M4108 904 c23 -16 42 -12 42 9 0 7 -4 6 -10 -3 -7 -12 -12 -12 -22
-2 -6 6 -17 12 -22 12 -6 0 0 -7 12 -16z"/>
<path d="M342 843 c65 -2 171 -2 235 0 65 1 12 3 -117 3 -129 0 -182 -2 -118
-3z"/>
<path d="M903 843 c75 -2 199 -2 275 0 75 1 13 3 -138 3 -151 0 -213 -2 -137
-3z"/>
<path d="M1503 843 c65 -2 168 -2 230 0 62 1 9 3 -118 3 -126 0 -177 -2 -112
-3z"/>
<path d="M2028 843 c12 -2 30 -2 40 0 9 3 -1 5 -23 4 -22 0 -30 -2 -17 -4z"/>
<path d="M2273 843 c65 -2 168 -2 230 0 62 1 9 3 -118 3 -126 0 -177 -2 -112
-3z"/>
<path d="M2833 843 c76 -2 198 -2 270 0 73 1 11 3 -138 3 -148 0 -208 -2 -132
-3z"/>
<path d="M3328 843 c12 -2 30 -2 40 0 9 3 -1 5 -23 4 -22 0 -30 -2 -17 -4z"/>
<path d="M3948 843 c12 -2 30 -2 40 0 9 3 -1 5 -23 4 -22 0 -30 -2 -17 -4z"/>
<path d="M1343 770 c0 -41 2 -58 4 -37 2 20 2 54 0 75 -2 20 -4 3 -4 -38z"/>
<path d="M1963 770 c0 -41 2 -58 4 -37 2 20 2 54 0 75 -2 20 -4 3 -4 -38z"/>
<path d="M3884 560 c0 -157 2 -221 3 -142 2 78 2 206 0 285 -1 78 -3 14 -3
-143z"/>
<path d="M3427 789 c4 -13 8 -18 11 -10 2 7 -1 18 -6 23 -8 8 -9 4 -5 -13z"/>
<path d="M186 775 c-9 -26 -7 -32 5 -12 6 10 9 21 6 23 -2 3 -7 -2 -11 -11z"/>
<path d="M2101 769 c-1 -14 6 -34 15 -45 8 -10 12 -13 8 -5 -4 8 -11 28 -15
45 -6 29 -7 29 -8 5z"/>
<path d="M2641 769 c-1 -14 6 -34 15 -45 8 -10 12 -13 8 -5 -4 8 -11 28 -15
45 -6 29 -7 29 -8 5z"/>
<path d="M28 764 c23 -16 42 -12 42 9 0 7 -4 6 -10 -3 -7 -12 -12 -12 -22 -2
-6 6 -17 12 -22 12 -6 0 0 -7 12 -16z"/>
<path d="M4108 764 c23 -16 42 -12 42 9 0 7 -4 6 -10 -3 -7 -12 -12 -12 -22
-2 -6 6 -17 12 -22 12 -6 0 0 -7 12 -16z"/>
<path d="M3427 741 c-4 -17 -3 -21 5 -13 5 5 8 16 6 23 -3 8 -7 3 -11 -10z"/>
<path d="M403 703 c53 -2 141 -2 195 0 53 1 9 3 -98 3 -107 0 -151 -2 -97 -3z"/>
<path d="M903 703 c75 -2 199 -2 275 0 75 1 13 3 -138 3 -151 0 -213 -2 -137
-3z"/>
<path d="M1483 703 c53 -2 141 -2 195 0 53 1 9 3 -98 3 -107 0 -151 -2 -97 -3z"/>
<path d="M2253 703 c53 -2 141 -2 195 0 53 1 9 3 -98 3 -107 0 -151 -2 -97 -3z"/>
<path d="M2833 703 c76 -2 198 -2 270 0 73 1 11 3 -138 3 -148 0 -208 -2 -132
-3z"/>
<path d="M3328 703 c12 -2 30 -2 40 0 9 3 -1 5 -23 4 -22 0 -30 -2 -17 -4z"/>
<path d="M2114 420 c0 -157 2 -221 3 -142 2 78 2 206 0 285 -1 78 -3 14 -3
-143z"/>
<path d="M270 675 c-7 -9 -11 -17 -9 -20 3 -2 10 5 17 15 14 24 10 26 -8 5z"/>
<path d="M101 629 c-1 -14 6 -34 15 -45 8 -10 12 -13 8 -5 -4 8 -11 28 -15 45
-6 29 -7 29 -8 5z"/>
<path d="M1972 625 c0 -16 2 -22 5 -12 2 9 2 23 0 30 -3 6 -5 -1 -5 -18z"/>
<path d="M2742 625 c0 -16 2 -22 5 -12 2 9 2 23 0 30 -3 6 -5 -1 -5 -18z"/>
<path d="M28 624 c23 -16 42 -12 42 9 0 7 -4 6 -10 -3 -7 -12 -12 -12 -22 -2
-6 6 -17 12 -22 12 -6 0 0 -7 12 -16z"/>
<path d="M251 624 c0 -11 3 -14 6 -6 3 7 2 16 -1 19 -3 4 -6 -2 -5 -13z"/>
<path d="M4108 624 c23 -16 42 -12 42 9 0 7 -4 6 -10 -3 -7 -12 -12 -12 -22
-2 -6 6 -17 12 -22 12 -6 0 0 -7 12 -16z"/>
<path d="M260 593 c0 -6 8 -17 18 -24 16 -13 16 -13 2 6 -8 11 -16 22 -17 24
-2 2 -3 0 -3 -6z"/>
<path d="M383 563 c42 -2 112 -2 155 0 42 1 7 3 -78 3 -85 0 -120 -2 -77 -3z"/>
<path d="M788 563 c12 -2 30 -2 40 0 9 3 -1 5 -23 4 -22 0 -30 -2 -17 -4z"/>
<path d="M1483 563 c53 -2 141 -2 195 0 53 1 9 3 -98 3 -107 0 -151 -2 -97 -3z"/>
<path d="M2253 563 c53 -2 141 -2 195 0 53 1 9 3 -98 3 -107 0 -151 -2 -97 -3z"/>
<path d="M2948 563 c12 -2 30 -2 40 0 9 3 -1 5 -23 4 -22 0 -30 -2 -17 -4z"/>
<path d="M3328 563 c12 -2 30 -2 40 0 9 3 -1 5 -23 4 -22 0 -30 -2 -17 -4z"/>
<path d="M884 420 c0 -80 2 -112 3 -72 2 39 2 105 0 145 -1 39 -3 7 -3 -73z"/>
<path d="M1344 420 c0 -80 2 -112 3 -72 2 39 2 105 0 145 -1 39 -3 7 -3 -73z"/>
<path d="M1964 350 c0 -118 2 -167 3 -108 2 60 2 156 0 215 -1 60 -3 11 -3
-107z"/>
<path d="M2884 350 c0 -118 2 -167 3 -108 2 60 2 156 0 215 -1 60 -3 11 -3
-107z"/>
<path d="M3424 420 c0 -80 2 -112 3 -72 2 39 2 105 0 145 -1 39 -3 7 -3 -73z"/>
<path d="M28 484 c23 -16 42 -12 42 9 0 7 -4 6 -10 -3 -7 -12 -12 -12 -22 -2
-6 6 -17 12 -22 12 -6 0 0 -7 12 -16z"/>
<path d="M4108 484 c23 -16 42 -12 42 9 0 7 -4 6 -10 -3 -7 -12 -12 -12 -22
-2 -6 6 -17 12 -22 12 -6 0 0 -7 12 -16z"/>
<path d="M200 475 c0 -5 5 -17 10 -25 5 -8 10 -10 10 -5 0 6 -5 17 -10 25 -5
8 -10 11 -10 5z"/>
<path d="M660 475 c0 -5 5 -17 10 -25 5 -8 10 -10 10 -5 0 6 -5 17 -10 25 -5
8 -10 11 -10 5z"/>
<path d="M308 423 c46 -2 118 -2 160 0 42 1 5 3 -83 3 -88 0 -123 -2 -77 -3z"/>
<path d="M1578 423 c23 -2 59 -2 80 0 20 2 1 4 -43 4 -44 0 -61 -2 -37 -4z"/>
<path d="M2383 423 c42 -2 112 -2 155 0 42 1 7 3 -78 3 -85 0 -120 -2 -77 -3z"/>
<path d="M726 387 c3 -10 9 -15 12 -12 3 3 0 11 -7 18 -10 9 -11 8 -5 -6z"/>
<path d="M28 344 c23 -16 42 -12 42 9 0 7 -4 6 -10 -3 -7 -12 -12 -12 -22 -2
-6 6 -17 12 -22 12 -6 0 0 -7 12 -16z"/>
<path d="M741 344 c0 -11 3 -14 6 -6 3 7 2 16 -1 19 -3 4 -6 -2 -5 -13z"/>
<path d="M1730 355 c0 -5 5 -17 10 -25 5 -8 10 -10 10 -5 0 6 -5 17 -10 25 -5
8 -10 11 -10 5z"/>
<path d="M4108 344 c23 -16 42 -12 42 9 0 7 -4 6 -10 -3 -7 -12 -12 -12 -22
-2 -6 6 -17 12 -22 12 -6 0 0 -7 12 -16z"/>
<path d="M726 303 c-6 -14 -5 -15 5 -6 7 7 10 15 7 18 -3 3 -9 -2 -12 -12z"/>
<path d="M252 283 c54 -2 142 -2 196 0 53 1 9 3 -98 3 -107 0 -151 -2 -98 -3z"/>
<path d="M1023 283 c53 -2 141 -2 195 0 53 1 9 3 -98 3 -107 0 -151 -2 -97 -3z"/>
<path d="M3563 283 c53 -2 141 -2 195 0 53 1 9 3 -98 3 -107 0 -151 -2 -97 -3z"/>
<path d="M790 255 c0 -5 5 -17 10 -25 5 -8 10 -10 10 -5 0 6 -5 17 -10 25 -5
8 -10 11 -10 5z"/>
<path d="M1347 229 c4 -13 8 -18 11 -10 2 7 -1 18 -6 23 -8 8 -9 4 -5 -13z"/>
<path d="M3887 229 c4 -13 8 -18 11 -10 2 7 -1 18 -6 23 -8 8 -9 4 -5 -13z"/>
<path d="M101 209 c-1 -14 6 -34 15 -45 8 -10 12 -13 8 -5 -4 8 -11 28 -15 45
-6 29 -7 29 -8 5z"/>
<path d="M646 215 c-9 -26 -7 -32 5 -12 6 10 9 21 6 23 -2 3 -7 -2 -11 -11z"/>
<path d="M28 204 c23 -16 42 -12 42 9 0 7 -4 6 -10 -3 -7 -12 -12 -12 -22 -2
-6 6 -17 12 -22 12 -6 0 0 -7 12 -16z"/>
<path d="M4108 204 c23 -16 42 -12 42 9 0 7 -4 6 -10 -3 -7 -12 -12 -12 -22
-2 -6 6 -17 12 -22 12 -6 0 0 -7 12 -16z"/>
<path d="M1347 181 c-4 -17 -3 -21 5 -13 5 5 8 16 6 23 -3 8 -7 3 -11 -10z"/>
<path d="M3887 181 c-4 -17 -3 -21 5 -13 5 5 8 16 6 23 -3 8 -7 3 -11 -10z"/>
<path d="M820 181 c0 -6 4 -13 10 -16 6 -3 7 1 4 9 -7 18 -14 21 -14 7z"/>
<path d="M273 143 c65 -2 168 -2 230 0 62 1 9 3 -118 3 -126 0 -177 -2 -112
-3z"/>
<path d="M963 143 c64 -2 170 -2 235 0 64 1 11 3 -118 3 -129 0 -182 -2 -117
-3z"/>
<path d="M1408 143 c12 -2 30 -2 40 0 9 3 -1 5 -23 4 -22 0 -30 -2 -17 -4z"/>
<path d="M1868 143 c12 -2 30 -2 40 0 9 3 -1 5 -23 4 -22 0 -30 -2 -17 -4z"/>
<path d="M2028 143 c12 -2 30 -2 40 0 9 3 -1 5 -23 4 -22 0 -30 -2 -17 -4z"/>
<path d="M2178 143 c12 -2 30 -2 40 0 9 3 -1 5 -23 4 -22 0 -30 -2 -17 -4z"/>
<path d="M2948 143 c12 -2 30 -2 40 0 9 3 -1 5 -23 4 -22 0 -30 -2 -17 -4z"/>
<path d="M3443 143 c75 -2 199 -2 275 0 75 1 13 3 -138 3 -151 0 -213 -2 -137
-3z"/>
<path d="M3948 143 c12 -2 30 -2 40 0 9 3 -1 5 -23 4 -22 0 -30 -2 -17 -4z"/>
<path d="M28 64 c23 -16 42 -12 42 9 0 7 -4 6 -10 -3 -7 -12 -12 -12 -22 -2
-6 6 -17 12 -22 12 -6 0 0 -7 12 -16z"/>
<path d="M108 64 c23 -16 42 -12 42 9 0 7 -4 6 -10 -3 -7 -12 -12 -12 -22 -2
-6 6 -17 12 -22 12 -6 0 0 -7 12 -16z"/>
<path d="M167 73 c-4 -3 -7 -11 -7 -17 0 -6 5 -4 10 4 7 12 12 12 22 2 6 -6
16 -12 22 -12 5 0 1 7 -10 15 -22 16 -28 18 -37 8z"/>
<path d="M258 64 c23 -16 42 -12 42 9 0 7 -4 6 -10 -3 -7 -12 -12 -12 -22 -2
-6 6 -17 12 -22 12 -6 0 0 -7 12 -16z"/>
<path d="M338 64 c23 -16 42 -12 42 9 0 7 -4 6 -10 -3 -7 -12 -12 -12 -22 -2
-6 6 -17 12 -22 12 -6 0 0 -7 12 -16z"/>
<path d="M397 73 c-4 -3 -7 -11 -7 -17 0 -6 5 -4 10 4 7 12 12 12 22 2 6 -6
16 -12 22 -12 5 0 1 7 -10 15 -22 16 -28 18 -37 8z"/>
<path d="M477 73 c-4 -3 -7 -11 -7 -17 0 -6 5 -4 10 4 7 12 12 12 22 2 6 -6
16 -12 22 -12 5 0 1 7 -10 15 -22 16 -28 18 -37 8z"/>
<path d="M568 64 c23 -16 42 -12 42 9 0 7 -4 6 -10 -3 -7 -12 -12 -12 -22 -2
-6 6 -17 12 -22 12 -6 0 0 -7 12 -16z"/>
<path d="M627 73 c-4 -3 -7 -11 -7 -17 0 -6 5 -4 10 4 7 12 12 12 22 2 6 -6
16 -12 22 -12 5 0 1 7 -10 15 -22 16 -28 18 -37 8z"/>
<path d="M707 73 c-4 -3 -7 -11 -7 -17 0 -6 5 -4 10 4 7 12 12 12 22 2 6 -6
16 -12 22 -12 5 0 1 7 -10 15 -22 16 -28 18 -37 8z"/>
<path d="M798 64 c23 -16 42 -12 42 9 0 7 -4 6 -10 -3 -7 -12 -12 -12 -22 -2
-6 6 -17 12 -22 12 -6 0 0 -7 12 -16z"/>
<path d="M878 64 c23 -16 42 -12 42 9 0 7 -4 6 -10 -3 -7 -12 -12 -12 -22 -2
-6 6 -17 12 -22 12 -6 0 0 -7 12 -16z"/>
<path d="M937 73 c-4 -3 -7 -11 -7 -17 0 -6 5 -4 10 4 7 12 12 12 22 2 6 -6
16 -12 22 -12 5 0 1 7 -10 15 -22 16 -28 18 -37 8z"/>
<path d="M1028 64 c23 -16 42 -12 42 9 0 7 -4 6 -10 -3 -7 -12 -12 -12 -22 -2
-6 6 -17 12 -22 12 -6 0 0 -7 12 -16z"/>
<path d="M1108 64 c23 -16 42 -12 42 9 0 7 -4 6 -10 -3 -7 -12 -12 -12 -22 -2
-6 6 -17 12 -22 12 -6 0 0 -7 12 -16z"/>
<path d="M1167 73 c-4 -3 -7 -11 -7 -17 0 -6 5 -4 10 4 7 12 12 12 22 2 6 -6
16 -12 22 -12 5 0 1 7 -10 15 -22 16 -28 18 -37 8z"/>
<path d="M1247 73 c-4 -3 -7 -11 -7 -17 0 -6 5 -4 10 4 7 12 12 12 22 2 6 -6
16 -12 22 -12 5 0 1 7 -10 15 -22 16 -28 18 -37 8z"/>
<path d="M1338 64 c23 -16 42 -12 42 9 0 7 -4 6 -10 -3 -7 -12 -12 -12 -22 -2
-6 6 -17 12 -22 12 -6 0 0 -7 12 -16z"/>
<path d="M1397 73 c-4 -3 -7 -11 -7 -17 0 -6 5 -4 10 4 7 12 12 12 22 2 6 -6
16 -12 22 -12 5 0 1 7 -10 15 -22 16 -28 18 -37 8z"/>
<path d="M1477 73 c-4 -3 -7 -11 -7 -17 0 -6 5 -4 10 4 7 12 12 12 22 2 6 -6
16 -12 22 -12 5 0 1 7 -10 15 -22 16 -28 18 -37 8z"/>
<path d="M1568 64 c23 -16 42 -12 42 9 0 7 -4 6 -10 -3 -7 -12 -12 -12 -22 -2
-6 6 -17 12 -22 12 -6 0 0 -7 12 -16z"/>
<path d="M1648 64 c23 -16 42 -12 42 9 0 7 -4 6 -10 -3 -7 -12 -12 -12 -22 -2
-6 6 -17 12 -22 12 -6 0 0 -7 12 -16z"/>
<path d="M1707 73 c-4 -3 -7 -11 -7 -17 0 -6 5 -4 10 4 7 12 12 12 22 2 6 -6
16 -12 22 -12 5 0 1 7 -10 15 -22 16 -28 18 -37 8z"/>
<path d="M1798 64 c23 -16 42 -12 42 9 0 7 -4 6 -10 -3 -7 -12 -12 -12 -22 -2
-6 6 -17 12 -22 12 -6 0 0 -7 12 -16z"/>
<path d="M1878 64 c23 -16 42 -12 42 9 0 7 -4 6 -10 -3 -7 -12 -12 -12 -22 -2
-6 6 -17 12 -22 12 -6 0 0 -7 12 -16z"/>
<path d="M1937 73 c-4 -3 -7 -11 -7 -17 0 -6 5 -4 10 4 7 12 12 12 22 2 6 -6
16 -12 22 -12 5 0 1 7 -10 15 -22 16 -28 18 -37 8z"/>
<path d="M2017 73 c-4 -3 -7 -11 -7 -17 0 -6 5 -4 10 4 7 12 12 12 22 2 6 -6
16 -12 22 -12 5 0 1 7 -10 15 -22 16 -28 18 -37 8z"/>
<path d="M2108 64 c23 -16 42 -12 42 9 0 7 -4 6 -10 -3 -7 -12 -12 -12 -22 -2
-6 6 -17 12 -22 12 -6 0 0 -7 12 -16z"/>
<path d="M2167 73 c-4 -3 -7 -11 -7 -17 0 -6 5 -4 10 4 7 12 12 12 22 2 6 -6
16 -12 22 -12 5 0 1 7 -10 15 -22 16 -28 18 -37 8z"/>
<path d="M2247 73 c-4 -3 -7 -11 -7 -17 0 -6 5 -4 10 4 7 12 12 12 22 2 6 -6
16 -12 22 -12 5 0 1 7 -10 15 -22 16 -28 18 -37 8z"/>
<path d="M2338 64 c23 -16 42 -12 42 9 0 7 -4 6 -10 -3 -7 -12 -12 -12 -22 -2
-6 6 -17 12 -22 12 -6 0 0 -7 12 -16z"/>
<path d="M2397 73 c-4 -3 -7 -11 -7 -17 0 -6 5 -4 10 4 7 12 12 12 22 2 6 -6
16 -12 22 -12 5 0 1 7 -10 15 -22 16 -28 18 -37 8z"/>
<path d="M2477 73 c-4 -3 -7 -11 -7 -17 0 -6 5 -4 10 4 7 12 12 12 22 2 6 -6
16 -12 22 -12 5 0 1 7 -10 15 -22 16 -28 18 -37 8z"/>
<path d="M2568 64 c23 -16 42 -12 42 9 0 7 -4 6 -10 -3 -7 -12 -12 -12 -22 -2
-6 6 -17 12 -22 12 -6 0 0 -7 12 -16z"/>
<path d="M2648 64 c23 -16 42 -12 42 9 0 7 -4 6 -10 -3 -7 -12 -12 -12 -22 -2
-6 6 -17 12 -22 12 -6 0 0 -7 12 -16z"/>
<path d="M2707 73 c-4 -3 -7 -11 -7 -17 0 -6 5 -4 10 4 7 12 12 12 22 2 6 -6
16 -12 22 -12 5 0 1 7 -10 15 -22 16 -28 18 -37 8z"/>
<path d="M2798 64 c23 -16 42 -12 42 9 0 7 -4 6 -10 -3 -7 -12 -12 -12 -22 -2
-6 6 -17 12 -22 12 -6 0 0 -7 12 -16z"/>
<path d="M2878 64 c23 -16 42 -12 42 9 0 7 -4 6 -10 -3 -7 -12 -12 -12 -22 -2
-6 6 -17 12 -22 12 -6 0 0 -7 12 -16z"/>
<path d="M2937 73 c-4 -3 -7 -11 -7 -17 0 -6 5 -4 10 4 7 12 12 12 22 2 6 -6
16 -12 22 -12 5 0 1 7 -10 15 -22 16 -28 18 -37 8z"/>
<path d="M3017 73 c-4 -3 -7 -11 -7 -17 0 -6 5 -4 10 4 7 12 12 12 22 2 6 -6
16 -12 22 -12 5 0 1 7 -10 15 -22 16 -28 18 -37 8z"/>
<path d="M3108 64 c23 -16 42 -12 42 9 0 7 -4 6 -10 -3 -7 -12 -12 -12 -22 -2
-6 6 -17 12 -22 12 -6 0 0 -7 12 -16z"/>
<path d="M3167 73 c-4 -3 -7 -11 -7 -17 0 -6 5 -4 10 4 7 12 12 12 22 2 6 -6
16 -12 22 -12 5 0 1 7 -10 15 -22 16 -28 18 -37 8z"/>
<path d="M3247 73 c-4 -3 -7 -11 -7 -17 0 -6 5 -4 10 4 7 12 12 12 22 2 6 -6
16 -12 22 -12 5 0 1 7 -10 15 -22 16 -28 18 -37 8z"/>
<path d="M3338 64 c23 -16 42 -12 42 9 0 7 -4 6 -10 -3 -7 -12 -12 -12 -22 -2
-6 6 -17 12 -22 12 -6 0 0 -7 12 -16z"/>
<path d="M3418 64 c23 -16 42 -12 42 9 0 7 -4 6 -10 -3 -7 -12 -12 -12 -22 -2
-6 6 -17 12 -22 12 -6 0 0 -7 12 -16z"/>
<path d="M3477 73 c-4 -3 -7 -11 -7 -17 0 -6 5 -4 10 4 7 12 12 12 22 2 6 -6
16 -12 22 -12 5 0 1 7 -10 15 -22 16 -28 18 -37 8z"/>
<path d="M3568 64 c23 -16 42 -12 42 9 0 7 -4 6 -10 -3 -7 -12 -12 -12 -22 -2
-6 6 -17 12 -22 12 -6 0 0 -7 12 -16z"/>
<path d="M3648 64 c23 -16 42 -12 42 9 0 7 -4 6 -10 -3 -7 -12 -12 -12 -22 -2
-6 6 -17 12 -22 12 -6 0 0 -7 12 -16z"/>
<path d="M3707 73 c-4 -3 -7 -11 -7 -17 0 -6 5 -4 10 4 7 12 12 12 22 2 6 -6
16 -12 22 -12 5 0 1 7 -10 15 -22 16 -28 18 -37 8z"/>
<path d="M3787 73 c-4 -3 -7 -11 -7 -17 0 -6 5 -4 10 4 7 12 12 12 22 2 6 -6
16 -12 22 -12 5 0 1 7 -10 15 -22 16 -28 18 -37 8z"/>
<path d="M3878 64 c23 -16 42 -12 42 9 0 7 -4 6 -10 -3 -7 -12 -12 -12 -22 -2
-6 6 -17 12 -22 12 -6 0 0 -7 12 -16z"/>
<path d="M3937 73 c-4 -3 -7 -11 -7 -17 0 -6 5 -4 10 4 7 12 12 12 22 2 6 -6
16 -12 22 -12 5 0 1 7 -10 15 -22 16 -28 18 -37 8z"/>
<path d="M4017 73 c-4 -3 -7 -11 -7 -17 0 -6 5 -4 10 4 7 12 12 12 22 2 6 -6
16 -12 22 -12 5 0 1 7 -10 15 -22 16 -28 18 -37 8z"/>
<path d="M4108 64 c23 -16 42 -12 42 9 0 7 -4 6 -10 -3 -7 -12 -12 -12 -22 -2
-6 6 -17 12 -22 12 -6 0 0 -7 12 -16z"/>
</g>
</svg>
